<mxfile host="app.diagrams.net" modified="2024-05-11T14:53:57.096Z" agent="Mozilla/5.0 (Windows NT 10.0; Win64; x64) AppleWebKit/537.36 (KHTML, like Gecko) Chrome/124.0.0.0 Safari/537.36" etag="vaUoxJINy80EcNZNrnii" version="24.3.1" type="google" pages="3">
  <diagram name="working" id="tZhGTekGpSgx7LBcnnsz">
    <mxGraphModel dx="1918" dy="1124" grid="0" gridSize="10" guides="1" tooltips="1" connect="1" arrows="1" fold="1" page="0" pageScale="1" pageWidth="827" pageHeight="1169" math="0" shadow="0">
      <root>
        <mxCell id="0" />
        <mxCell id="1" parent="0" />
        <mxCell id="tVOaBj_vCgv-FxkCun1D-1" style="edgeStyle=none;curved=1;rounded=0;orthogonalLoop=1;jettySize=auto;html=1;exitX=0;exitY=1;exitDx=0;exitDy=0;fontSize=12;startSize=8;endSize=8;" edge="1" parent="1" source="tVOaBj_vCgv-FxkCun1D-2" target="tVOaBj_vCgv-FxkCun1D-4">
          <mxGeometry relative="1" as="geometry" />
        </mxCell>
        <mxCell id="tVOaBj_vCgv-FxkCun1D-2" value="&lt;span style=&quot;font-size: 16px;&quot;&gt;warehouse&amp;nbsp; 1&lt;/span&gt;" style="ellipse;whiteSpace=wrap;html=1;aspect=fixed;" vertex="1" parent="1">
          <mxGeometry x="84" y="-8" width="80" height="80" as="geometry" />
        </mxCell>
        <mxCell id="tVOaBj_vCgv-FxkCun1D-3" style="edgeStyle=none;curved=1;rounded=0;orthogonalLoop=1;jettySize=auto;html=1;exitX=0;exitY=1;exitDx=0;exitDy=0;fontSize=12;startSize=8;endSize=8;" edge="1" parent="1" source="tVOaBj_vCgv-FxkCun1D-4" target="tVOaBj_vCgv-FxkCun1D-18">
          <mxGeometry relative="1" as="geometry" />
        </mxCell>
        <mxCell id="tVOaBj_vCgv-FxkCun1D-4" value="&lt;span style=&quot;font-size: 16px;&quot;&gt;warehouse&amp;nbsp; 2&lt;/span&gt;" style="ellipse;whiteSpace=wrap;html=1;aspect=fixed;" vertex="1" parent="1">
          <mxGeometry x="-4" y="95" width="80" height="80" as="geometry" />
        </mxCell>
        <mxCell id="tVOaBj_vCgv-FxkCun1D-5" style="edgeStyle=none;curved=1;rounded=0;orthogonalLoop=1;jettySize=auto;html=1;exitX=0.5;exitY=0;exitDx=0;exitDy=0;fontSize=12;startSize=8;endSize=8;" edge="1" parent="1" source="tVOaBj_vCgv-FxkCun1D-7" target="tVOaBj_vCgv-FxkCun1D-2">
          <mxGeometry relative="1" as="geometry" />
        </mxCell>
        <mxCell id="tVOaBj_vCgv-FxkCun1D-6" style="edgeStyle=none;curved=1;rounded=0;orthogonalLoop=1;jettySize=auto;html=1;exitX=0.5;exitY=1;exitDx=0;exitDy=0;fontSize=12;startSize=8;endSize=8;" edge="1" parent="1" source="tVOaBj_vCgv-FxkCun1D-7" target="tVOaBj_vCgv-FxkCun1D-14">
          <mxGeometry relative="1" as="geometry" />
        </mxCell>
        <mxCell id="tVOaBj_vCgv-FxkCun1D-7" value="&lt;span style=&quot;font-size: 16px;&quot;&gt;warehouse&amp;nbsp; 3&lt;/span&gt;" style="ellipse;whiteSpace=wrap;html=1;aspect=fixed;" vertex="1" parent="1">
          <mxGeometry x="137" y="145" width="80" height="80" as="geometry" />
        </mxCell>
        <mxCell id="tVOaBj_vCgv-FxkCun1D-8" style="edgeStyle=none;curved=1;rounded=0;orthogonalLoop=1;jettySize=auto;html=1;exitX=1;exitY=1;exitDx=0;exitDy=0;fontSize=12;startSize=8;endSize=8;" edge="1" parent="1" source="tVOaBj_vCgv-FxkCun1D-9" target="tVOaBj_vCgv-FxkCun1D-4">
          <mxGeometry relative="1" as="geometry" />
        </mxCell>
        <mxCell id="tVOaBj_vCgv-FxkCun1D-9" value="&lt;span style=&quot;font-size: 16px;&quot;&gt;warehouse&amp;nbsp; 4&lt;/span&gt;" style="ellipse;whiteSpace=wrap;html=1;aspect=fixed;" vertex="1" parent="1">
          <mxGeometry x="-96" y="-8" width="80" height="80" as="geometry" />
        </mxCell>
        <mxCell id="tVOaBj_vCgv-FxkCun1D-10" style="edgeStyle=none;curved=1;rounded=0;orthogonalLoop=1;jettySize=auto;html=1;exitX=1;exitY=0.5;exitDx=0;exitDy=0;entryX=0;entryY=0.5;entryDx=0;entryDy=0;fontSize=12;startSize=8;endSize=8;" edge="1" parent="1" source="tVOaBj_vCgv-FxkCun1D-11" target="tVOaBj_vCgv-FxkCun1D-9">
          <mxGeometry relative="1" as="geometry" />
        </mxCell>
        <mxCell id="tVOaBj_vCgv-FxkCun1D-11" value="&lt;font style=&quot;font-size: 16px;&quot;&gt;warehouse 5&lt;/font&gt;" style="ellipse;whiteSpace=wrap;html=1;aspect=fixed;" vertex="1" parent="1">
          <mxGeometry x="-260" y="-18" width="80" height="80" as="geometry" />
        </mxCell>
        <mxCell id="tVOaBj_vCgv-FxkCun1D-12" style="edgeStyle=none;curved=1;rounded=0;orthogonalLoop=1;jettySize=auto;html=1;exitX=0;exitY=1;exitDx=0;exitDy=0;fontSize=12;startSize=8;endSize=8;" edge="1" parent="1" source="tVOaBj_vCgv-FxkCun1D-14" target="tVOaBj_vCgv-FxkCun1D-15">
          <mxGeometry relative="1" as="geometry" />
        </mxCell>
        <mxCell id="tVOaBj_vCgv-FxkCun1D-13" style="edgeStyle=none;curved=1;rounded=0;orthogonalLoop=1;jettySize=auto;html=1;exitX=1;exitY=1;exitDx=0;exitDy=0;entryX=0;entryY=0.5;entryDx=0;entryDy=0;fontSize=12;startSize=8;endSize=8;" edge="1" parent="1" source="tVOaBj_vCgv-FxkCun1D-14" target="tVOaBj_vCgv-FxkCun1D-17">
          <mxGeometry relative="1" as="geometry" />
        </mxCell>
        <mxCell id="tVOaBj_vCgv-FxkCun1D-14" value="&lt;span style=&quot;font-size: 16px;&quot;&gt;warehouse&amp;nbsp; 6&lt;/span&gt;" style="ellipse;whiteSpace=wrap;html=1;aspect=fixed;" vertex="1" parent="1">
          <mxGeometry x="90" y="274" width="80" height="80" as="geometry" />
        </mxCell>
        <mxCell id="tVOaBj_vCgv-FxkCun1D-15" value="&lt;span style=&quot;font-size: 16px;&quot;&gt;warehouse&amp;nbsp; 7&lt;/span&gt;" style="ellipse;whiteSpace=wrap;html=1;aspect=fixed;" vertex="1" parent="1">
          <mxGeometry x="4" y="362" width="80" height="80" as="geometry" />
        </mxCell>
        <mxCell id="tVOaBj_vCgv-FxkCun1D-16" style="edgeStyle=none;curved=1;rounded=0;orthogonalLoop=1;jettySize=auto;html=1;exitX=0.5;exitY=0;exitDx=0;exitDy=0;entryX=1;entryY=1;entryDx=0;entryDy=0;fontSize=12;startSize=8;endSize=8;" edge="1" parent="1" source="tVOaBj_vCgv-FxkCun1D-17" target="tVOaBj_vCgv-FxkCun1D-7">
          <mxGeometry relative="1" as="geometry" />
        </mxCell>
        <mxCell id="tVOaBj_vCgv-FxkCun1D-17" value="&lt;span style=&quot;font-size: 16px;&quot;&gt;warehouse&amp;nbsp; 8&lt;/span&gt;" style="ellipse;whiteSpace=wrap;html=1;aspect=fixed;" vertex="1" parent="1">
          <mxGeometry x="202" y="339" width="80" height="80" as="geometry" />
        </mxCell>
        <mxCell id="tVOaBj_vCgv-FxkCun1D-18" value="&lt;span style=&quot;font-size: 16px;&quot;&gt;warehouse&amp;nbsp; 9&lt;/span&gt;" style="ellipse;whiteSpace=wrap;html=1;aspect=fixed;" vertex="1" parent="1">
          <mxGeometry x="-76" y="198" width="80" height="80" as="geometry" />
        </mxCell>
        <mxCell id="tVOaBj_vCgv-FxkCun1D-19" style="edgeStyle=none;curved=1;rounded=0;orthogonalLoop=1;jettySize=auto;html=1;exitX=0;exitY=0;exitDx=0;exitDy=0;entryX=0.5;entryY=1;entryDx=0;entryDy=0;fontSize=12;startSize=8;endSize=8;" edge="1" parent="1" source="tVOaBj_vCgv-FxkCun1D-20" target="tVOaBj_vCgv-FxkCun1D-11">
          <mxGeometry relative="1" as="geometry" />
        </mxCell>
        <mxCell id="tVOaBj_vCgv-FxkCun1D-20" value="&lt;span style=&quot;font-size: 16px;&quot;&gt;warehouse&amp;nbsp; 10&lt;/span&gt;" style="ellipse;whiteSpace=wrap;html=1;aspect=fixed;" vertex="1" parent="1">
          <mxGeometry x="-196" y="123" width="80" height="80" as="geometry" />
        </mxCell>
      </root>
    </mxGraphModel>
  </diagram>
  <diagram id="mSARmr7Fv4J2AGsih66C" name="delivering">
    <mxGraphModel dx="2190" dy="1538" grid="0" gridSize="10" guides="1" tooltips="1" connect="1" arrows="1" fold="1" page="0" pageScale="1" pageWidth="827" pageHeight="1169" math="0" shadow="0">
      <root>
        <mxCell id="0" />
        <mxCell id="1" parent="0" />
        <mxCell id="ns8GyrOPVdorxqSypD8x-35" style="edgeStyle=none;curved=1;rounded=0;orthogonalLoop=1;jettySize=auto;html=1;exitX=0.5;exitY=1;exitDx=0;exitDy=0;entryX=0.5;entryY=0;entryDx=0;entryDy=0;fontSize=12;startSize=8;endSize=8;" edge="1" parent="1" source="ns8GyrOPVdorxqSypD8x-2" target="ns8GyrOPVdorxqSypD8x-31">
          <mxGeometry relative="1" as="geometry" />
        </mxCell>
        <mxCell id="ns8GyrOPVdorxqSypD8x-36" style="edgeStyle=none;curved=1;rounded=0;orthogonalLoop=1;jettySize=auto;html=1;exitX=0.5;exitY=1;exitDx=0;exitDy=0;entryX=0.5;entryY=0;entryDx=0;entryDy=0;fontSize=12;startSize=8;endSize=8;" edge="1" parent="1" source="ns8GyrOPVdorxqSypD8x-2" target="ns8GyrOPVdorxqSypD8x-21">
          <mxGeometry relative="1" as="geometry" />
        </mxCell>
        <mxCell id="ns8GyrOPVdorxqSypD8x-2" value="&lt;span style=&quot;font-size: 16px;&quot;&gt;warehouse&amp;nbsp; 1&lt;/span&gt;" style="ellipse;whiteSpace=wrap;html=1;aspect=fixed;" vertex="1" parent="1">
          <mxGeometry x="-133" y="405" width="80" height="80" as="geometry" />
        </mxCell>
        <mxCell id="ns8GyrOPVdorxqSypD8x-40" style="edgeStyle=none;curved=1;rounded=0;orthogonalLoop=1;jettySize=auto;html=1;exitX=0.5;exitY=1;exitDx=0;exitDy=0;fontSize=12;startSize=8;endSize=8;" edge="1" parent="1" source="ns8GyrOPVdorxqSypD8x-4">
          <mxGeometry relative="1" as="geometry">
            <mxPoint x="472.03131198883057" y="530.5000610351562" as="targetPoint" />
          </mxGeometry>
        </mxCell>
        <mxCell id="ns8GyrOPVdorxqSypD8x-4" value="&lt;span style=&quot;font-size: 16px;&quot;&gt;warehouse&amp;nbsp; 2&lt;/span&gt;" style="ellipse;whiteSpace=wrap;html=1;aspect=fixed;" vertex="1" parent="1">
          <mxGeometry x="470" y="405" width="80" height="80" as="geometry" />
        </mxCell>
        <mxCell id="ns8GyrOPVdorxqSypD8x-41" style="edgeStyle=none;curved=1;rounded=0;orthogonalLoop=1;jettySize=auto;html=1;exitX=0.5;exitY=1;exitDx=0;exitDy=0;fontSize=12;startSize=8;endSize=8;" edge="1" parent="1" source="ns8GyrOPVdorxqSypD8x-7" target="ns8GyrOPVdorxqSypD8x-28">
          <mxGeometry relative="1" as="geometry" />
        </mxCell>
        <mxCell id="ns8GyrOPVdorxqSypD8x-7" value="&lt;span style=&quot;font-size: 16px;&quot;&gt;warehouse&amp;nbsp; 3&lt;/span&gt;" style="ellipse;whiteSpace=wrap;html=1;aspect=fixed;" vertex="1" parent="1">
          <mxGeometry x="617" y="395" width="80" height="80" as="geometry" />
        </mxCell>
        <mxCell id="ns8GyrOPVdorxqSypD8x-42" style="edgeStyle=none;curved=1;rounded=0;orthogonalLoop=1;jettySize=auto;html=1;exitX=0.5;exitY=1;exitDx=0;exitDy=0;fontSize=12;startSize=8;endSize=8;" edge="1" parent="1" source="ns8GyrOPVdorxqSypD8x-9" target="ns8GyrOPVdorxqSypD8x-29">
          <mxGeometry relative="1" as="geometry" />
        </mxCell>
        <mxCell id="ns8GyrOPVdorxqSypD8x-9" value="&lt;span style=&quot;font-size: 16px;&quot;&gt;warehouse&amp;nbsp; 4&lt;/span&gt;" style="ellipse;whiteSpace=wrap;html=1;aspect=fixed;" vertex="1" parent="1">
          <mxGeometry x="778" y="391" width="80" height="80" as="geometry" />
        </mxCell>
        <mxCell id="ns8GyrOPVdorxqSypD8x-37" style="edgeStyle=none;curved=1;rounded=0;orthogonalLoop=1;jettySize=auto;html=1;exitX=0.5;exitY=1;exitDx=0;exitDy=0;entryX=0.5;entryY=0;entryDx=0;entryDy=0;fontSize=12;startSize=8;endSize=8;" edge="1" parent="1" source="ns8GyrOPVdorxqSypD8x-11" target="ns8GyrOPVdorxqSypD8x-23">
          <mxGeometry relative="1" as="geometry" />
        </mxCell>
        <mxCell id="ns8GyrOPVdorxqSypD8x-11" value="&lt;font style=&quot;font-size: 16px;&quot;&gt;warehouse 5&lt;/font&gt;" style="ellipse;whiteSpace=wrap;html=1;aspect=fixed;" vertex="1" parent="1">
          <mxGeometry x="100" y="405" width="80" height="80" as="geometry" />
        </mxCell>
        <mxCell id="ns8GyrOPVdorxqSypD8x-43" style="edgeStyle=none;curved=1;rounded=0;orthogonalLoop=1;jettySize=auto;html=1;exitX=0.5;exitY=1;exitDx=0;exitDy=0;entryX=0.5;entryY=0;entryDx=0;entryDy=0;fontSize=12;startSize=8;endSize=8;" edge="1" parent="1" source="ns8GyrOPVdorxqSypD8x-14" target="ns8GyrOPVdorxqSypD8x-30">
          <mxGeometry relative="1" as="geometry" />
        </mxCell>
        <mxCell id="ns8GyrOPVdorxqSypD8x-14" value="&lt;span style=&quot;font-size: 16px;&quot;&gt;warehouse&amp;nbsp; 6&lt;/span&gt;" style="ellipse;whiteSpace=wrap;html=1;aspect=fixed;" vertex="1" parent="1">
          <mxGeometry x="939" y="391" width="80" height="80" as="geometry" />
        </mxCell>
        <mxCell id="ns8GyrOPVdorxqSypD8x-39" style="edgeStyle=none;curved=1;rounded=0;orthogonalLoop=1;jettySize=auto;html=1;exitX=0.5;exitY=1;exitDx=0;exitDy=0;entryX=0.5;entryY=0;entryDx=0;entryDy=0;fontSize=12;startSize=8;endSize=8;" edge="1" parent="1" source="ns8GyrOPVdorxqSypD8x-15" target="ns8GyrOPVdorxqSypD8x-27">
          <mxGeometry relative="1" as="geometry" />
        </mxCell>
        <mxCell id="ns8GyrOPVdorxqSypD8x-15" value="&lt;span style=&quot;font-size: 16px;&quot;&gt;warehouse&amp;nbsp; 7&lt;/span&gt;" style="ellipse;whiteSpace=wrap;html=1;aspect=fixed;" vertex="1" parent="1">
          <mxGeometry x="384" y="413" width="80" height="80" as="geometry" />
        </mxCell>
        <mxCell id="ns8GyrOPVdorxqSypD8x-38" style="edgeStyle=none;curved=1;rounded=0;orthogonalLoop=1;jettySize=auto;html=1;exitX=0.5;exitY=1;exitDx=0;exitDy=0;entryX=0.5;entryY=0;entryDx=0;entryDy=0;fontSize=12;startSize=8;endSize=8;" edge="1" parent="1" source="ns8GyrOPVdorxqSypD8x-17" target="ns8GyrOPVdorxqSypD8x-25">
          <mxGeometry relative="1" as="geometry" />
        </mxCell>
        <mxCell id="ns8GyrOPVdorxqSypD8x-17" value="&lt;span style=&quot;font-size: 16px;&quot;&gt;warehouse&amp;nbsp; 8&lt;/span&gt;" style="ellipse;whiteSpace=wrap;html=1;aspect=fixed;" vertex="1" parent="1">
          <mxGeometry x="266" y="395" width="80" height="80" as="geometry" />
        </mxCell>
        <mxCell id="ns8GyrOPVdorxqSypD8x-33" style="edgeStyle=none;curved=1;rounded=0;orthogonalLoop=1;jettySize=auto;html=1;exitX=0.5;exitY=1;exitDx=0;exitDy=0;entryX=0.5;entryY=0;entryDx=0;entryDy=0;fontSize=12;startSize=8;endSize=8;" edge="1" parent="1" source="ns8GyrOPVdorxqSypD8x-18" target="ns8GyrOPVdorxqSypD8x-32">
          <mxGeometry relative="1" as="geometry" />
        </mxCell>
        <mxCell id="ns8GyrOPVdorxqSypD8x-18" value="&lt;span style=&quot;font-size: 16px;&quot;&gt;warehouse&amp;nbsp; 9&lt;/span&gt;" style="ellipse;whiteSpace=wrap;html=1;aspect=fixed;" vertex="1" parent="1">
          <mxGeometry x="-372" y="405" width="80" height="80" as="geometry" />
        </mxCell>
        <mxCell id="ns8GyrOPVdorxqSypD8x-34" style="edgeStyle=none;curved=1;rounded=0;orthogonalLoop=1;jettySize=auto;html=1;exitX=0.5;exitY=1;exitDx=0;exitDy=0;entryX=0.5;entryY=0;entryDx=0;entryDy=0;fontSize=12;startSize=8;endSize=8;" edge="1" parent="1" source="ns8GyrOPVdorxqSypD8x-20" target="ns8GyrOPVdorxqSypD8x-31">
          <mxGeometry relative="1" as="geometry" />
        </mxCell>
        <mxCell id="ns8GyrOPVdorxqSypD8x-20" value="&lt;span style=&quot;font-size: 16px;&quot;&gt;warehouse&amp;nbsp; 10&lt;/span&gt;" style="ellipse;whiteSpace=wrap;html=1;aspect=fixed;" vertex="1" parent="1">
          <mxGeometry x="-259" y="405" width="80" height="80" as="geometry" />
        </mxCell>
        <mxCell id="ns8GyrOPVdorxqSypD8x-21" value="&lt;font style=&quot;font-size: 16px;&quot;&gt;deliverypoint 6&lt;/font&gt;" style="whiteSpace=wrap;html=1;aspect=fixed;" vertex="1" parent="1">
          <mxGeometry x="-76" y="530" width="101" height="101" as="geometry" />
        </mxCell>
        <mxCell id="ns8GyrOPVdorxqSypD8x-23" value="&lt;font style=&quot;font-size: 16px;&quot;&gt;deliverypoint 1&lt;/font&gt;" style="whiteSpace=wrap;html=1;aspect=fixed;" vertex="1" parent="1">
          <mxGeometry x="89.5" y="530" width="101" height="101" as="geometry" />
        </mxCell>
        <mxCell id="ns8GyrOPVdorxqSypD8x-25" value="&lt;font style=&quot;font-size: 16px;&quot;&gt;deliverypoint 7&lt;/font&gt;" style="whiteSpace=wrap;html=1;aspect=fixed;" vertex="1" parent="1">
          <mxGeometry x="255.5" y="530" width="101" height="101" as="geometry" />
        </mxCell>
        <mxCell id="ns8GyrOPVdorxqSypD8x-27" value="&lt;font style=&quot;font-size: 16px;&quot;&gt;deliverypoint 2&lt;/font&gt;" style="whiteSpace=wrap;html=1;aspect=fixed;" vertex="1" parent="1">
          <mxGeometry x="421.5" y="526" width="101" height="101" as="geometry" />
        </mxCell>
        <mxCell id="ns8GyrOPVdorxqSypD8x-28" value="&lt;font style=&quot;font-size: 16px;&quot;&gt;deliverypoint 5&lt;/font&gt;" style="whiteSpace=wrap;html=1;aspect=fixed;" vertex="1" parent="1">
          <mxGeometry x="606.5" y="530" width="101" height="101" as="geometry" />
        </mxCell>
        <mxCell id="ns8GyrOPVdorxqSypD8x-29" value="&lt;font style=&quot;font-size: 16px;&quot;&gt;deliverypoint 3&lt;/font&gt;" style="whiteSpace=wrap;html=1;aspect=fixed;" vertex="1" parent="1">
          <mxGeometry x="775" y="530" width="101" height="101" as="geometry" />
        </mxCell>
        <mxCell id="ns8GyrOPVdorxqSypD8x-30" value="&lt;font style=&quot;font-size: 16px;&quot;&gt;deliverypoint 4&lt;/font&gt;" style="whiteSpace=wrap;html=1;aspect=fixed;" vertex="1" parent="1">
          <mxGeometry x="928.5" y="530" width="101" height="101" as="geometry" />
        </mxCell>
        <mxCell id="ns8GyrOPVdorxqSypD8x-31" value="&lt;font style=&quot;font-size: 16px;&quot;&gt;deliverypoint 9&lt;/font&gt;" style="whiteSpace=wrap;html=1;aspect=fixed;" vertex="1" parent="1">
          <mxGeometry x="-217" y="530" width="101" height="101" as="geometry" />
        </mxCell>
        <mxCell id="ns8GyrOPVdorxqSypD8x-32" value="&lt;font style=&quot;font-size: 16px;&quot;&gt;deliverypoint 8&lt;/font&gt;" style="whiteSpace=wrap;html=1;aspect=fixed;" vertex="1" parent="1">
          <mxGeometry x="-382.5" y="534" width="101" height="101" as="geometry" />
        </mxCell>
      </root>
    </mxGraphModel>
  </diagram>
  <diagram id="O1pB4Jenld7Lpjxdq2Az" name="keeping">
    <mxGraphModel dx="2590" dy="1538" grid="0" gridSize="10" guides="1" tooltips="1" connect="1" arrows="1" fold="1" page="0" pageScale="1" pageWidth="827" pageHeight="1169" math="0" shadow="0">
      <root>
        <mxCell id="0" />
        <mxCell id="1" parent="0" />
        <mxCell id="NU9LbZfL0CQF3Syb0irH-3" value="&lt;span style=&quot;font-size: 16px;&quot;&gt;warehouse&amp;nbsp; 1&lt;/span&gt;" style="ellipse;whiteSpace=wrap;html=1;aspect=fixed;" vertex="1" parent="1">
          <mxGeometry x="346" y="417" width="80" height="80" as="geometry" />
        </mxCell>
        <mxCell id="NU9LbZfL0CQF3Syb0irH-5" value="&lt;span style=&quot;font-size: 16px;&quot;&gt;warehouse&amp;nbsp; 2&lt;/span&gt;" style="ellipse;whiteSpace=wrap;html=1;aspect=fixed;" vertex="1" parent="1">
          <mxGeometry x="638.5" y="385" width="80" height="80" as="geometry" />
        </mxCell>
        <mxCell id="NU9LbZfL0CQF3Syb0irH-7" value="&lt;span style=&quot;font-size: 16px;&quot;&gt;warehouse&amp;nbsp; 3&lt;/span&gt;" style="ellipse;whiteSpace=wrap;html=1;aspect=fixed;" vertex="1" parent="1">
          <mxGeometry x="860" y="373" width="80" height="80" as="geometry" />
        </mxCell>
        <mxCell id="NU9LbZfL0CQF3Syb0irH-9" value="&lt;span style=&quot;font-size: 16px;&quot;&gt;warehouse&amp;nbsp; 4&lt;/span&gt;" style="ellipse;whiteSpace=wrap;html=1;aspect=fixed;" vertex="1" parent="1">
          <mxGeometry x="-349.5" y="395" width="80" height="80" as="geometry" />
        </mxCell>
        <mxCell id="NU9LbZfL0CQF3Syb0irH-19" value="&lt;span style=&quot;font-size: 16px;&quot;&gt;warehouse&amp;nbsp; 9&lt;/span&gt;" style="ellipse;whiteSpace=wrap;html=1;aspect=fixed;" vertex="1" parent="1">
          <mxGeometry x="126.5" y="403" width="80" height="80" as="geometry" />
        </mxCell>
        <mxCell id="NU9LbZfL0CQF3Syb0irH-43" style="edgeStyle=none;curved=1;rounded=0;orthogonalLoop=1;jettySize=auto;html=1;exitX=0.5;exitY=0;exitDx=0;exitDy=0;entryX=0.5;entryY=1;entryDx=0;entryDy=0;fontSize=12;startSize=8;endSize=8;" edge="1" parent="1" source="NU9LbZfL0CQF3Syb0irH-22" target="NU9LbZfL0CQF3Syb0irH-9">
          <mxGeometry relative="1" as="geometry" />
        </mxCell>
        <mxCell id="NU9LbZfL0CQF3Syb0irH-22" value="&lt;font style=&quot;font-size: 16px;&quot;&gt;ProductionCenter 6&lt;/font&gt;" style="whiteSpace=wrap;html=1;aspect=fixed;" vertex="1" parent="1">
          <mxGeometry x="-486" y="526" width="101" height="101" as="geometry" />
        </mxCell>
        <mxCell id="NU9LbZfL0CQF3Syb0irH-32" style="edgeStyle=none;curved=1;rounded=0;orthogonalLoop=1;jettySize=auto;html=1;exitX=0.5;exitY=0;exitDx=0;exitDy=0;entryX=0.5;entryY=1;entryDx=0;entryDy=0;fontSize=12;startSize=8;endSize=8;" edge="1" parent="1" source="NU9LbZfL0CQF3Syb0irH-23" target="NU9LbZfL0CQF3Syb0irH-3">
          <mxGeometry relative="1" as="geometry" />
        </mxCell>
        <mxCell id="NU9LbZfL0CQF3Syb0irH-45" style="edgeStyle=none;curved=1;rounded=0;orthogonalLoop=1;jettySize=auto;html=1;exitX=0.5;exitY=0;exitDx=0;exitDy=0;entryX=0.5;entryY=1;entryDx=0;entryDy=0;fontSize=12;startSize=8;endSize=8;" edge="1" parent="1" source="NU9LbZfL0CQF3Syb0irH-23" target="NU9LbZfL0CQF3Syb0irH-19">
          <mxGeometry relative="1" as="geometry" />
        </mxCell>
        <mxCell id="NU9LbZfL0CQF3Syb0irH-23" value="&lt;font style=&quot;font-size: 16px;&quot;&gt;ProductionCenter 1&lt;/font&gt;" style="whiteSpace=wrap;html=1;aspect=fixed;" vertex="1" parent="1">
          <mxGeometry x="261.5" y="544" width="101" height="101" as="geometry" />
        </mxCell>
        <mxCell id="NU9LbZfL0CQF3Syb0irH-44" style="edgeStyle=none;curved=1;rounded=0;orthogonalLoop=1;jettySize=auto;html=1;exitX=0.5;exitY=0;exitDx=0;exitDy=0;entryX=0.5;entryY=1;entryDx=0;entryDy=0;fontSize=12;startSize=8;endSize=8;" edge="1" parent="1" source="NU9LbZfL0CQF3Syb0irH-24" target="NU9LbZfL0CQF3Syb0irH-9">
          <mxGeometry relative="1" as="geometry" />
        </mxCell>
        <mxCell id="NU9LbZfL0CQF3Syb0irH-24" value="&lt;font style=&quot;font-size: 16px;&quot;&gt;ProductionCenter 7&lt;/font&gt;" style="whiteSpace=wrap;html=1;aspect=fixed;" vertex="1" parent="1">
          <mxGeometry x="-360" y="530" width="101" height="101" as="geometry" />
        </mxCell>
        <mxCell id="NU9LbZfL0CQF3Syb0irH-38" style="edgeStyle=none;curved=1;rounded=0;orthogonalLoop=1;jettySize=auto;html=1;exitX=0.5;exitY=0;exitDx=0;exitDy=0;entryX=0.5;entryY=1;entryDx=0;entryDy=0;fontSize=12;startSize=8;endSize=8;" edge="1" parent="1" source="NU9LbZfL0CQF3Syb0irH-25" target="NU9LbZfL0CQF3Syb0irH-5">
          <mxGeometry relative="1" as="geometry" />
        </mxCell>
        <mxCell id="NU9LbZfL0CQF3Syb0irH-25" value="&lt;font style=&quot;font-size: 16px;&quot;&gt;ProductionCenter 2&lt;/font&gt;" style="whiteSpace=wrap;html=1;aspect=fixed;" vertex="1" parent="1">
          <mxGeometry x="628" y="536" width="101" height="101" as="geometry" />
        </mxCell>
        <mxCell id="NU9LbZfL0CQF3Syb0irH-33" style="edgeStyle=none;curved=1;rounded=0;orthogonalLoop=1;jettySize=auto;html=1;exitX=0.5;exitY=0;exitDx=0;exitDy=0;entryX=0.5;entryY=1;entryDx=0;entryDy=0;fontSize=12;startSize=8;endSize=8;" edge="1" parent="1" source="NU9LbZfL0CQF3Syb0irH-26" target="NU9LbZfL0CQF3Syb0irH-3">
          <mxGeometry relative="1" as="geometry" />
        </mxCell>
        <mxCell id="NU9LbZfL0CQF3Syb0irH-26" value="&lt;font style=&quot;font-size: 16px;&quot;&gt;ProductionCenter 5&lt;/font&gt;" style="whiteSpace=wrap;html=1;aspect=fixed;" vertex="1" parent="1">
          <mxGeometry x="405" y="540" width="101" height="101" as="geometry" />
        </mxCell>
        <mxCell id="NU9LbZfL0CQF3Syb0irH-40" style="edgeStyle=none;curved=1;rounded=0;orthogonalLoop=1;jettySize=auto;html=1;exitX=0.5;exitY=0;exitDx=0;exitDy=0;entryX=0.5;entryY=1;entryDx=0;entryDy=0;fontSize=12;startSize=8;endSize=8;" edge="1" parent="1" source="NU9LbZfL0CQF3Syb0irH-27" target="NU9LbZfL0CQF3Syb0irH-7">
          <mxGeometry relative="1" as="geometry" />
        </mxCell>
        <mxCell id="NU9LbZfL0CQF3Syb0irH-27" value="&lt;font style=&quot;font-size: 16px;&quot;&gt;ProductionCenter 3&lt;/font&gt;" style="whiteSpace=wrap;html=1;aspect=fixed;" vertex="1" parent="1">
          <mxGeometry x="775" y="530" width="101" height="101" as="geometry" />
        </mxCell>
        <mxCell id="NU9LbZfL0CQF3Syb0irH-37" style="edgeStyle=none;curved=1;rounded=0;orthogonalLoop=1;jettySize=auto;html=1;exitX=0.5;exitY=0;exitDx=0;exitDy=0;entryX=0.5;entryY=1;entryDx=0;entryDy=0;fontSize=12;startSize=8;endSize=8;" edge="1" parent="1" source="NU9LbZfL0CQF3Syb0irH-28" target="NU9LbZfL0CQF3Syb0irH-7">
          <mxGeometry relative="1" as="geometry" />
        </mxCell>
        <mxCell id="NU9LbZfL0CQF3Syb0irH-28" value="&lt;font style=&quot;font-size: 16px;&quot;&gt;ProductionCenter 4&lt;/font&gt;" style="whiteSpace=wrap;html=1;aspect=fixed;" vertex="1" parent="1">
          <mxGeometry x="928.5" y="530" width="101" height="101" as="geometry" />
        </mxCell>
        <mxCell id="NU9LbZfL0CQF3Syb0irH-46" style="edgeStyle=none;curved=1;rounded=0;orthogonalLoop=1;jettySize=auto;html=1;exitX=0.5;exitY=0;exitDx=0;exitDy=0;entryX=0.5;entryY=1;entryDx=0;entryDy=0;fontSize=12;startSize=8;endSize=8;" edge="1" parent="1" source="NU9LbZfL0CQF3Syb0irH-29" target="NU9LbZfL0CQF3Syb0irH-9">
          <mxGeometry relative="1" as="geometry" />
        </mxCell>
        <mxCell id="NU9LbZfL0CQF3Syb0irH-29" value="&lt;font style=&quot;font-size: 16px;&quot;&gt;ProductionCenter 9&lt;/font&gt;" style="whiteSpace=wrap;html=1;aspect=fixed;" vertex="1" parent="1">
          <mxGeometry x="-217" y="530" width="101" height="101" as="geometry" />
        </mxCell>
        <mxCell id="NU9LbZfL0CQF3Syb0irH-34" style="edgeStyle=none;curved=1;rounded=0;orthogonalLoop=1;jettySize=auto;html=1;exitX=0.5;exitY=0;exitDx=0;exitDy=0;entryX=0.5;entryY=1;entryDx=0;entryDy=0;fontSize=12;startSize=8;endSize=8;" edge="1" parent="1" source="NU9LbZfL0CQF3Syb0irH-30" target="NU9LbZfL0CQF3Syb0irH-3">
          <mxGeometry relative="1" as="geometry" />
        </mxCell>
        <mxCell id="NU9LbZfL0CQF3Syb0irH-30" value="&lt;font style=&quot;font-size: 16px;&quot;&gt;ProductionCenter 8&lt;/font&gt;" style="whiteSpace=wrap;html=1;aspect=fixed;" vertex="1" parent="1">
          <mxGeometry x="116" y="544" width="101" height="101" as="geometry" />
        </mxCell>
        <mxCell id="NU9LbZfL0CQF3Syb0irH-48" style="edgeStyle=none;curved=1;rounded=0;orthogonalLoop=1;jettySize=auto;html=1;exitX=0.5;exitY=0;exitDx=0;exitDy=0;entryX=0.5;entryY=1;entryDx=0;entryDy=0;fontSize=12;startSize=8;endSize=8;" edge="1" parent="1" source="NU9LbZfL0CQF3Syb0irH-47" target="NU9LbZfL0CQF3Syb0irH-19">
          <mxGeometry relative="1" as="geometry" />
        </mxCell>
        <mxCell id="NU9LbZfL0CQF3Syb0irH-47" value="&lt;font style=&quot;font-size: 16px;&quot;&gt;ProductionCenter 10&lt;/font&gt;" style="whiteSpace=wrap;html=1;aspect=fixed;" vertex="1" parent="1">
          <mxGeometry x="-27" y="536" width="101" height="101" as="geometry" />
        </mxCell>
      </root>
    </mxGraphModel>
  </diagram>
</mxfile>
